<?xml version="1.0" standalone="no"?><!DOCTYPE svg PUBLIC "-//W3C//DTD SVG 1.1//EN" "http://www.w3.org/Graphics/SVG/1.1/DTD/svg11.dtd"><svg class="icon" width="128px" height="128.00px" viewBox="0 0 1024 1024" version="1.1" xmlns="http://www.w3.org/2000/svg"><path d="M410.144 378.368l0 37.664L256.032 416.032 256.032 192.416l150.24 0 0 37.824L296.96 230.24l0 49.568 101.728 0 0 37.664L296.96 317.472l0 60.864L410.144 378.336zM496.096 416.032 496.096 230.24l-60.128 0L435.968 192.416l161.024 0 0 37.824-59.968 0 0 185.792L496.096 416.032zM992 576c-41.152-42.752-111.968-80.256-172.864-91.2 2.016-15.36 8.48-30.272 19.744-42.592 23.072-25.184 58.656-31.712 88.544-19.328-0.032-60.864 0.16-140 0.32-195.616-10.656 5.376-22.56 8.672-35.328 8.672-43.584 0-78.944-35.2-78.944-78.656 0-8.16 1.6-15.232 3.936-21.728C727.584 117.792 597.12 96.736 480 96c-117.28-0.736-224.32 14.496-294.176 27.552 18.752 37.92 4.224 84.032-33.472 104.064C136.64 235.936 119.456 238.208 103.136 235.648l0 181.6c24.192-2.656 49.28 5.664 66.944 24.928 16.288 17.76 21.856 40.8 19.008 62.912C265.984 493.536 377.056 479.04 448 480c73.888 0.992 161.728 5.152 245.184 10.176-40.864 10.976-78.208 30.464-109.76 56.832C538.368 544.992 492.576 543.808 448 544c-243.584 0.992-416 64-416 64L32 96l8-1.632C40 94.368 237.568 32 480 32c208.16 0 512 64 512 64l0 416L992 576zM160.96 671.584c24.704-16.512 57.664-18.56 84.8-2.208 20.832 12.576 33.408 33.28 36.832 55.52 64.544-27.936 145.568-61.792 185.152-73.472 8.896-2.624 24.416-6.656 44.416-11.648-10.208 22.528-18.24 46.24-23.296 71.072-1.056 0.32-2.208 0.608-3.264 0.928C252.256 781.44 155.232 874.528 155.232 874.528L86.784 643.52c19.072-4.032 39.808-7.872 62.464-11.392L160.96 671.584zM629.312 416.032 629.312 192.416l138.88 0 0 37.824-97.984 0 0 52.928 84.576 0 0 37.824-84.576 0 0 95.04L629.312 416.032zM768 544c123.712 0 224 100.288 224 224s-100.288 224-224 224-224-100.288-224-224S644.288 544 768 544zM836.288 643.36c-5.12-5.12-16.768-5.12-21.888 0l-32.832 32.864 21.888 21.888 32.832-32.864C841.408 660.128 841.408 648.48 836.288 643.36zM891.04 698.112c-5.088-5.088-16.832-5.088-21.888 0l-32.864 32.864 21.888 21.888 34.816-34.368C898.112 713.408 896.128 703.2 891.04 698.112zM862.304 814.464l3.296-3.296c8-8.032 8-21.024 0-29.024l-113.312-113.312c-8-8.032-21.024-8.032-29.024 0l-3.264 3.264c-8.032 8.032-8.032 21.024 0 29.056l113.312 113.312C841.28 822.496 854.272 822.496 862.304 814.464zM644.544 889.632l1.76 1.76c6.08 6.08 15.904 6.08 21.952 0l28.992-28.992c0.384-0.384 0.256-1.024 0.608-1.44 27.232 19.2 64.512 17.888 88.864-6.464l38.624-24.928-120.448-120.448-24.928 35.232c-25.76 25.792-27.68 66.048-6.304 94.336-0.032 0.032-0.096 0.032-0.128 0.064l-28.992 28.992C638.496 873.728 638.496 883.552 644.544 889.632z" fill="#F4B042" /></svg>